<svg width="800" height="450" viewBox="0 0 800 450" xmlns="http://www.w3.org/2000/svg">
  <rect width="800" height="450" fill="#0A0E17"/>
  <defs>
    <linearGradient id="grad1" x1="0%" y1="0%" x2="100%" y2="100%">
      <stop offset="0%" stop-color="#8A2BE2" stop-opacity="0.7"/>
      <stop offset="100%" stop-color="#40E0D0" stop-opacity="0.7"/>
    </linearGradient>
    <filter id="glow" x="-20%" y="-20%" width="140%" height="140%">
      <feGaussianBlur stdDeviation="5" result="blur"/>
      <feMerge>
        <feMergeNode in="blur"/>
        <feMergeNode in="SourceGraphic"/>
      </feMerge>
    </filter>
  </defs>
  
  <!-- Stars -->
  <g>
    <circle cx="100" cy="80" r="1" fill="white" opacity="0.8"/>
    <circle cx="200" cy="150" r="1.5" fill="white" opacity="0.7"/>
    <circle cx="300" cy="100" r="1" fill="white" opacity="0.9"/>
    <circle cx="500" cy="200" r="1.2" fill="white" opacity="0.8"/>
    <circle cx="650" cy="120" r="1" fill="white" opacity="0.7"/>
    <circle cx="750" cy="350" r="1.3" fill="white" opacity="0.9"/>
    <circle cx="400" cy="300" r="1" fill="white" opacity="0.8"/>
    <circle cx="200" cy="350" r="1.2" fill="white" opacity="0.7"/>
    <circle cx="300" cy="400" r="1" fill="white" opacity="0.9"/>
    <circle cx="600" cy="350" r="1.4" fill="white" opacity="0.8"/>
    <circle cx="100" cy="250" r="1" fill="white" opacity="0.7"/>
    <circle cx="700" cy="200" r="1.5" fill="white" opacity="0.9"/>
  </g>
  
  <!-- Fractal Pattern -->
  <g transform="translate(400, 175)" filter="url(#glow)">
    <!-- Level 1 -->
    <polygon points="0,0 70,-120 140,0 70,120" fill="none" stroke="url(#grad1)" stroke-width="3"/>
    
    <!-- Level 2 - Top -->
    <polygon points="70,-60 105,-120 140,-60 105,0" fill="none" stroke="url(#grad1)" stroke-width="2" opacity="0.8"/>
    
    <!-- Level 2 - Right -->
    <polygon points="105,0 140,-60 175,0 140,60" fill="none" stroke="url(#grad1)" stroke-width="2" opacity="0.8"/>
    
    <!-- Level 2 - Bottom -->
    <polygon points="70,60 105,0 140,60 105,120" fill="none" stroke="url(#grad1)" stroke-width="2" opacity="0.8"/>
    
    <!-- Level 2 - Left -->
    <polygon points="35,0 70,-60 105,0 70,60" fill="none" stroke="url(#grad1)" stroke-width="2" opacity="0.8"/>
    
    <!-- Core Glow -->
    <circle cx="70" cy="0" r="30" fill="url(#grad1)" opacity="0.5"/>
    <circle cx="70" cy="0" r="15" fill="#40E0D0" opacity="0.8"/>
  </g>
  
  <!-- Title -->
  <text x="400" y="340" font-family="Arial, sans-serif" font-size="40" font-weight="bold" text-anchor="middle" fill="white" filter="url(#glow)">
    Fractal Drop Game
  </text>
  <text x="400" y="380" font-family="Arial, sans-serif" font-size="18" text-anchor="middle" fill="#CCC">
    March 25, 2025 - Visual pattern navigation
  </text>
  
  <!-- ChatGPT Logo Hint -->
  <g transform="translate(670, 380)">
    <text font-family="Arial, sans-serif" font-size="14" fill="#CCC">Powered by</text>
    <text x="0" y="20" font-family="Arial, sans-serif" font-size="16" font-weight="bold" fill="#40E0D0">ChatGPT</text>
  </g>
</svg>